# xmcd
#
# Track frame offsets:
#	150
#	17711
#	27523
#	39505
#	55096
#	71583
#	87875
#	100513
#	112507
#	128169
#	142670
#	158032
#	173077
#	185726
#	200581
#	215034
#	226782
#	237235
#	249798
#	274687
#
# Disc length: 3805 seconds
#
# Revision: 0
# Processed by: cddbd v1.5.2PL0 Copyright (c) Steve Scherf et al.
# Submitted via: dBpowerAMP V4.0
#
DISCID=000edb14
DTITLE=Mariette Croteau - souvenirs de grand-mere
DYEAR=1900
DGENRE=Country
TTITLE0=Souvenirs de grand-mere
TTITLE1=Madeleine et moi
TTITLE2=Sur ce vieux rocher blanc
TTITLE3=Le train qui siffle
TTITLE4=Bonsoir cherie
TTITLE5=Un coin de ciel
TTITLE6=Priere d'une mere
TTITLE7=Une promesse
TTITLE8=Mille apres mille
TTITLE9=Des roses rouges
TTITLE10=Mon enfant je te pardonne
TTITLE11=Simple passager
TTITLE12=Le chemin de bagne
TTITLE13=Petit Pierre
TTITLE14=A ma fenetre
TTITLE15=Une autre fois
TTITLE16=Ca va venir
TTITLE17=Combien faut-il de larmes
TTITLE18=Le petit voitier
TTITLE19=De la neige sur la bible de mon pere
EXTD=
EXTT0=
EXTT1=
EXTT2=
EXTT3=
EXTT4=
EXTT5=
EXTT6=
EXTT7=
EXTT8=
EXTT9=
EXTT10=
EXTT11=
EXTT12=
EXTT13=
EXTT14=
EXTT15=
EXTT16=
EXTT17=
EXTT18=
EXTT19=
PLAYORDER=
